<?xml version='1.0' encoding='utf-8'?>
<mxfile host="app.diagrams.net"><diagram name="MAGNA Auto Flow Plan"><mxGraphModel><root><mxCell id="0" /><mxCell id="1" parent="0" /><mxCell id="2" value="Start" style="shape=ellipse;fillColor=#CDE6F5;strokeColor=#000000;" vertex="1" parent="1"><mxGeometry x="20" y="80" width="80" height="40" as="geometry" /></mxCell><mxCell id="3" value="Free Tools&lt;br&gt;(Core Modules)" style="shape=rectangle;fillColor=#F5F5DC;strokeColor=#000000;" vertex="1" parent="1"><mxGeometry x="160" y="40" width="120" height="60" as="geometry" /></mxCell><mxCell id="4" value="Custom Light Tools&lt;br&gt;(Enhanced Modules)" style="shape=rectangle;fillColor=#FFF0F5;strokeColor=#000000;" vertex="1" parent="1"><mxGeometry x="160" y="140" width="140" height="60" as="geometry" /></mxCell><mxCell id="5" value="FULL AUTO&lt;br&gt;(Automatic Execution)" style="shape=rhombus;fillColor=#98FB98;strokeColor=#000000;" vertex="1" parent="1"><mxGeometry x="340" y="40" width="140" height="60" as="geometry" /></mxCell><mxCell id="6" value="HAND CHECK&lt;br&gt;(Human Validation)" style="shape=rhombus;fillColor=#FFD580;strokeColor=#000000;" vertex="1" parent="1"><mxGeometry x="340" y="140" width="140" height="60" as="geometry" /></mxCell><mxCell id="7" value="Install Core Modules" style="shape=rectangle;fillColor=#ADD8E6;strokeColor=#000000;" vertex="1" parent="1"><mxGeometry x="520" y="40" width="140" height="60" as="geometry" /></mxCell><mxCell id="8" value="Install Optional Modules" style="shape=rectangle;fillColor=#E6E6FA;strokeColor=#000000;" vertex="1" parent="1"><mxGeometry x="520" y="140" width="140" height="60" as="geometry" /></mxCell><mxCell id="9" value="End / Ready for Release" style="shape=ellipse;fillColor=#CDE6F5;strokeColor=#000000;" vertex="1" parent="1"><mxGeometry x="700" y="90" width="160" height="60" as="geometry" /></mxCell><mxCell id="10" value="" edge="1" parent="1" source="2" target="3" style="endArrow=block;endFill=1;"><mxGeometry relative="1" as_="geometry" /></mxCell><mxCell id="11" value="" edge="1" parent="1" source="2" target="4" style="endArrow=block;endFill=1;"><mxGeometry relative="1" as_="geometry" /></mxCell><mxCell id="12" value="" edge="1" parent="1" source="3" target="5" style="endArrow=block;endFill=1;"><mxGeometry relative="1" as_="geometry" /></mxCell><mxCell id="13" value="" edge="1" parent="1" source="4" target="6" style="endArrow=block;endFill=1;"><mxGeometry relative="1" as_="geometry" /></mxCell><mxCell id="14" value="Core Priority" edge="1" parent="1" source="5" target="7" style="endArrow=block;endFill=1;"><mxGeometry relative="1" as_="geometry" /></mxCell><mxCell id="15" value="Optional Priority" edge="1" parent="1" source="6" target="8" style="endArrow=block;endFill=1;"><mxGeometry relative="1" as_="geometry" /></mxCell><mxCell id="16" value="" edge="1" parent="1" source="7" target="9" style="endArrow=block;endFill=1;"><mxGeometry relative="1" as_="geometry" /></mxCell><mxCell id="17" value="" edge="1" parent="1" source="8" target="9" style="endArrow=block;endFill=1;"><mxGeometry relative="1" as_="geometry" /></mxCell></root></mxGraphModel></diagram></mxfile>